<?xml version="1.0"?>
<svg xmlns="http://www.w3.org/2000/svg" xmlns:xlink="http://www.w3.org/1999/xlink" version="1.1" id="Layer_1" x="0px" y="0px" viewBox="0 0 300 300" style="enable-background:new 0 0 300 300;" xml:space="preserve" width="512px" height="512px" class=""><g><g>
	<g>
		<g>
			<path d="M112.782,205.804c10.644,7.166,23.449,11.355,37.218,11.355c36.837,0,66.808-29.971,66.808-66.808     c0-13.769-4.189-26.574-11.355-37.218L112.782,205.804z" data-original="#000000" class="active-path" data-old_color="#000000" fill="#FF355A"/>
			<path d="M150,83.542c-36.839,0-66.808,29.969-66.808,66.808c0,15.595,5.384,29.946,14.374,41.326l93.758-93.758     C179.946,88.926,165.595,83.542,150,83.542z" data-original="#000000" class="active-path" data-old_color="#000000" fill="#FF355A"/>
			<path d="M149.997,0C67.158,0,0.003,67.161,0.003,149.997S67.158,300,149.997,300s150-67.163,150-150.003S232.837,0,149.997,0z      M150,237.907c-48.28,0-87.557-39.28-87.557-87.557c0-48.28,39.277-87.557,87.557-87.557c48.277,0,87.557,39.277,87.557,87.557     C237.557,198.627,198.277,237.907,150,237.907z" data-original="#000000" class="active-path" data-old_color="#000000" fill="#FF355A"/>
		</g>
	</g>
</g></g> </svg>
